Coordinates
version=1
nRows=13
nColumns=40
inDegrees=yes

Units are S.I. units (second, meters, Newtons, ...)
Angles are in degrees.

endheader
time	pelvis_tilt	pelvis_list	pelvis_rotation	pelvis_tx	pelvis_ty	pelvis_tz	hip_flexion_r	hip_adduction_r	hip_rotation_r	knee_angle_r	knee_angle_r_beta	ankle_angle_r	subtalar_angle_r	mtp_angle_r	hip_flexion_l	hip_adduction_l	hip_rotation_l	knee_angle_l	knee_angle_l_beta	ankle_angle_l	subtalar_angle_l	mtp_angle_l	lumbar_extension	lumbar_bending	lumbar_rotation	arm_flex_r	arm_add_r	arm_rot_r	elbow_flex_r	pro_sup_r	wrist_flex_r	wrist_dev_r	arm_flex_l	arm_add_l	arm_rot_l	elbow_flex_l	pro_sup_l	wrist_flex_l	wrist_dev_l
     48.05000000	     -2.71516741	     -3.87100510	      3.97704453	      0.97407470	      0.92171024	      0.40326893	     18.65076007	     -8.02478968	    -10.27129086	     62.50881691	     62.50881691	      5.55432293	    -19.22165945	     13.00369103	     19.99305134	     -1.21979424	     -0.42081079	     29.48086124	     29.48086124	     15.32306038	    -13.29859541	      1.02877144	     -9.47644835	      2.43098653	      2.84135973	     29.96916257	    -13.80721281	     -8.49630687	     54.35954758	     45.39530987	      0.00000000	      0.00000000	     12.91803385	    -11.49729187	     18.72870330	     29.54535895	     45.03753169	      0.00000000	      0.00000000
     48.06942857	     -2.46832718	     -3.94710572	      3.47609996	      0.97384431	      0.92004179	      0.40137587	     19.81833247	     -7.76504636	     -9.15727355	     63.34208923	     63.34208923	      5.97511858	    -19.12012200	     12.77103866	     19.82896284	     -1.16652395	     -0.30494150	     30.53050392	     30.53050392	     15.89421697	    -14.47052874	      1.19556911	     -9.61607246	      2.84266610	      2.81140397	     26.92326341	    -13.77686050	     -8.10651703	     51.75169343	     45.46115110	      0.00000000	      0.00000000	     14.94567156	    -11.48066029	     18.68525402	     30.13191131	     45.08335628	      0.00000000	      0.00000000
     48.08885714	     -2.22792211	     -4.05068796	      2.90057040	      0.97366357	      0.91839601	      0.39962940	     20.95598009	     -7.43401222	     -8.03671225	     63.90387477	     63.90387477	      6.14423259	    -18.99723881	     11.79959860	     19.69108915	     -1.22713323	     -0.43475200	     31.70369245	     31.70369245	     16.97608737	    -14.91760336	      2.00995269	     -9.75271734	      3.29627865	      2.44742121	     24.40822893	    -13.46542240	     -7.47670871	     48.40440780	     45.55066830	      0.00000000	      0.00000000	     16.68648554	    -11.75024827	     18.58643799	     31.09541998	     45.14675725	      0.00000000	      0.00000000
     48.10828571	     -1.96083660	     -4.18142617	      2.29315905	      0.97351371	      0.91700125	      0.39810314	     22.00494002	     -7.01362447	     -6.95734995	     64.15265994	     64.15265994	      6.51685030	    -18.84374619	     11.24100312	     19.38188532	     -1.33437159	     -0.62604253	     32.60481866	     32.60481866	     17.62967920	    -15.51946287	      2.01633478	    -10.00127872	      3.74337403	      2.55984695	     21.22231107	    -13.51444294	     -7.22306898	     46.14437222	     45.60621365	      0.00000000	      0.00000000	     18.62254061	    -11.85987610	     18.30020619	     32.26590121	     45.22135297	      0.00000000	      0.00000000
     48.12771429	     -1.73249545	     -4.31962304	      1.62761758	      0.97332610	      0.91586676	      0.39688950	     23.00793127	     -6.55488767	     -5.94417272	     63.99574538	     63.99574538	      6.89335430	    -18.69369176	     10.57907628	     19.01532647	     -1.47706347	     -0.88854130	     33.32563484	     33.32563484	     18.27879856	    -16.02266049	      2.21560912	    -10.25045608	      4.22192264	      2.75117214	     18.21788131	    -13.59645228	     -6.98297826	     43.56312535	     45.67535411	      0.00000000	      0.00000000	     20.51786365	    -11.99502721	     17.96596300	     33.45264267	     45.29968761	      0.00000000	      0.00000000
     48.14714286	     -1.51581217	     -4.45870380	      0.92919280	      0.97317578	      0.91517974	      0.39601392	     23.88914622	     -6.06122069	     -5.02597181	     63.35853030	     63.35853030	      7.27454375	    -18.50373714	      9.72915907	     18.51666020	     -1.64626329	     -1.23391143	     33.79859796	     33.79859796	     18.97817115	    -16.36468007	      2.65689638	    -10.50074336	      4.64155484	      2.86948845	     15.49067871	    -13.60819722	     -6.76307088	     40.60944458	     45.76188832	      0.00000000	      0.00000000	     22.28719371	    -12.18088198	     17.53581513	     34.66991213	     45.38755689	      0.00000000	      0.00000000
     48.16657143	     -1.36753991	     -4.55614338	      0.20372042	      0.97298790	      0.91494126	      0.39545095	     24.63866091	     -5.66765527	     -4.32095839	     62.09631560	     62.09631560	      7.19266383	    -18.35202367	      7.33215931	     18.01191308	     -1.77129364	     -1.59072790	     34.15488513	     34.15488513	     20.05033750	    -16.46709431	      4.28153373	    -10.63939618	      5.01577592	      2.19035834	     14.17398542	    -13.00183083	     -6.64193005	     35.37664833	     45.95594542	      0.00000000	      0.00000000	     23.37774059	    -12.83794825	     16.30377063	     36.22616228	     45.57306180	      0.00000000	      0.00000000
     48.18600000	     -1.38754767	     -4.67329815	     -0.52827230	      0.97268272	      0.91496691	      0.39533980	     25.51354929	     -5.18346447	     -3.69616185	     60.51027713	     60.51027713	      7.88374591	    -18.02555551	      7.13995292	     17.50174812	     -1.95720500	     -2.02554716	     34.08016536	     34.08016536	     20.31363618	    -16.76018366	      4.31159493	    -10.67542585	      5.40552390	      1.49952190	     11.64065891	    -12.72343005	     -6.58632582	     34.26866842	     45.97798480	      0.00000000	      0.00000000	     24.74385149	    -13.74436076	     15.95979465	     36.73286551	     45.63188420	      0.00000000	      0.00000000
     48.20542857	     -1.29713440	     -4.84602657	     -1.37608650	      0.97242693	      0.91585663	      0.39569797	     26.04118220	     -4.58173160	     -3.15304597	     58.29961909	     58.29961909	      8.29341822	    -17.73790156	      6.42739292	     16.64856790	     -2.26767733	     -2.66003341	     33.63838652	     33.63838652	     20.63436459	    -16.77323010	      4.50423966	    -10.96060199	      5.77343883	      2.55739732	      8.55997405	    -13.19219011	     -6.50947873	     31.73668992	     46.05669868	      0.00000000	      0.00000000	     26.46377235	    -13.48628008	     15.19508240	     38.73120982	     45.75504593	      0.00000000	      0.00000000
     48.22485714	     -1.35700147	     -4.94831585	     -2.20294963	      0.97207685	      0.91700484	      0.39632635	     26.53794678	     -4.09173503	     -2.80543893	     55.61101313	     55.61101313	      8.63223874	    -17.23474379	      5.33069075	     15.84370624	     -2.50102968	     -3.32240319	     32.95944930	     32.95944930	     20.80722581	    -16.76629026	      4.69501191	    -11.04248629	      6.07724205	      2.62541368	      6.10614587	    -13.21279585	     -6.53422616	     29.69729958	     46.12795113	      0.00000000	      0.00000000	     27.67862217	    -13.92088765	     14.23169413	     40.34384200	     45.88634893	      0.00000000	      0.00000000
     48.24428571	     -1.56370851	     -5.03769368	     -2.99528770	      0.97166741	      0.91838666	      0.39719977	     26.86917402	     -3.70641417	     -2.78989936	     52.21270325	     52.21270325	      7.77959909	    -16.83854715	      0.79036397	     15.08172965	     -2.73260959	     -4.02464829	     32.02997719	     32.02997719	     20.73465569	    -16.69710100	      4.53005522	    -10.95906176	      6.38049505	      1.68271853	      4.70364367	    -12.90994769	     -7.05898027	     26.85827483	     46.29744287	      0.00000000	      0.00000000	     27.67254786	    -14.83587097	     11.06033507	     43.40052574	     46.23957495	      0.00000000	      0.00000000
     48.26371429	     -1.76529191	     -5.08598571	     -3.82029623	      0.97121787	      0.92010262	      0.39843987	     27.14700622	     -3.24644072	     -2.70326427	     48.76519666	     48.76519666	      8.20740354	    -15.68480873	      0.36604139	     14.18386731	     -2.92487890	     -4.79416535	     30.87221850	     30.87221850	     20.69187096	    -16.51387988	      4.62637161	    -10.92721266	      6.59675964	      1.78217149	      2.17369728	    -13.05467035	     -7.12223265	     25.75758110	     46.33253663	      0.00000000	      0.00000000	     28.93507550	    -15.29282782	     10.39689700	     44.52369945	     46.32703230	      0.00000000	      0.00000000
     48.28314286	     -2.16182170	     -5.15654646	     -4.57993378	      0.97069284	      0.92166453	      0.39988653	     27.43380699	     -2.76313870	     -2.78986432	     45.03945379	     45.03945379	      8.61802745	    -14.13616760	      0.24886809	     13.47896981	     -3.15269778	     -5.53004892	     29.65597543	     29.65597543	     20.62677285	    -16.23766420	      4.75537723	    -10.63487929	      6.88594430	      1.49827402	     -0.12281400	    -13.14463907	     -7.18679752	     24.95744016	     46.35327697	      0.00000000	      0.00000000	     29.98343659	    -16.07179228	      9.88776788	     45.36434569	     46.39306585	      0.00000000	      0.00000000
